# xmcd
#
# Track frame offsets: 
#        150
#        13568
#        26663
#        39399
#        52759
#        68575
#        82045
#        98967
#        111468
#        124724
#        136274
#        147042
#        157083
#        171013
#        188547
#        199418
#        212059
#        222546
#        233691
#        245076
#        256974
#        274656
#        288126
#        299663
#        310284
#
# Disc length: 4375 seconds
#
# Revision: 0
# Processed by: cddbd v1.5.2PL0 Copyright (c) Steve Scherf et al.
# Submitted via: ExactAudioCopy v0.95b2
#
DISCID=75111519
DTITLE=Various Artist - Super Country Hits Vol. 2
DYEAR=1900
DGENRE=Country
TTITLE0=Ricky Skaggs - Crying my heart out over you
TTITLE1=johnny Rodriguez - How could i love her so much
TTITLE2=Boxcar Willie - From a rolls to the rails
TTITLE3=Ricky Skaggs - I wouldn't change you if I could
TTITLE4=Oakridge Boy - To be a country star
TTITLE5=Thom. t. Hall - Everything from Jesus to Jack Daniel
TTITLE6=Alabama - Mountain Music
TTITLE7=Anne Murry - Could I have this dance
TTITLE8=Merle Haggard - Okie from munkigee
TTITLE9=Moe Bandy - Let's get over them together
TTITLE10=Tammy Wynette - Stand by your man
TTITLE11=R. Charles, G. Jones - We Didn't see a thing
TTITLE12=Willie Nelson, Brenda Lee - You're going to love
TTITLE13=Alabama - Dixieland delight
TTITLE14=Merle Haggard - The bottle let me down
TTITLE15=Charlie Mclain, Miskey Gilly - Paradise tonight
TTITLE16=Leon Everett - If I keep on going crazy
TTITLE17=Barbara Mandrel - One of a kind pair of fools
TTITLE18=Georges Jones - Tennesse whiskey
TTITLE19=Moe Bandy - She's not really cheating
TTITLE20=Linda Ronstadt - Crazy
TTITLE21=Kenny Rodgers - Love will turn you around
TTITLE22=Hank Snow - Movin on
TTITLE23=Johnny Cash - Ring of fire
TTITLE24=Hank Williams Jr. - All my rowdy friends
EXTD=
EXTT0=
EXTT1=
EXTT2=
EXTT3=
EXTT4=
EXTT5=
EXTT6=
EXTT7=
EXTT8=
EXTT9=
EXTT10=
EXTT11=
EXTT12=
EXTT13=
EXTT14=
EXTT15=
EXTT16=
EXTT17=
EXTT18=
EXTT19=
EXTT20=
EXTT21=
EXTT22=
EXTT23=
EXTT24=
PLAYORDER=
